<svg width="291" height="292" viewBox="0 0 291 292" fill="none" xmlns="http://www.w3.org/2000/svg">
<path d="M71.8404 130.377C52.3741 171.772 61.6533 220.809 96.0236 255.207C139.712 298.931 210.545 298.931 254.234 255.207C297.922 211.483 297.922 140.592 254.234 96.8674C219.922 62.5278 171.865 52.4787 130.611 71.737C129.245 72.3747 127.604 72.1073 126.515 71.0167L96.0236 40.5004C94.6101 39.0859 94.6101 36.7915 96.0236 35.3762L99.0959 32.3021C102.207 29.1889 102.207 24.1415 99.0959 21.0283L97.8157 19.7478C94.705 16.6346 89.6617 16.6346 86.5518 19.7478L19.7346 86.619C16.6241 89.7322 16.6241 94.7796 19.7346 97.8921L20.2467 98.4052C23.3572 101.518 28.4003 101.518 31.5108 98.4052L34.8388 95.0738C36.253 93.6593 38.5448 93.6593 39.9589 95.0738L71.1258 126.266C72.217 127.358 72.4842 129.007 71.8404 130.377ZM71.8404 130.377L69.22 129.142L71.8404 130.377ZM23.8307 67.6592C23.8307 67.6592 13.1879 60.5951 7.44646 54.8484C3.48766 50.8865 2.63404 44.5449 6.49755 40.4896C17.5439 28.8947 28.8746 17.5549 40.46 6.49959C44.512 2.63292 50.8484 3.48724 54.807 7.44928C60.5483 13.1954 67.6074 23.8466 67.6074 23.8466L23.8307 67.6592ZM240.409 240.859C204.073 277.225 145.16 277.225 108.824 240.859C90.3257 222.346 81.2449 197.983 81.5802 173.715C81.9307 170.73 83.5244 166.774 86.4142 162.487C89.3149 158.182 93.3806 153.757 98.3319 149.925C108.253 142.25 121.417 137.181 135.629 139.788C154.927 143.329 164.415 149.409 173.305 155.524C173.793 155.859 174.281 156.196 174.769 156.533C183.392 162.49 192.119 168.518 208.538 171.805C233.733 176.848 250.902 163.661 263.736 153.803C264.011 153.592 264.283 153.383 264.554 153.175C271.292 183.444 263.679 217.571 240.409 240.859Z" stroke="#F39945" stroke-width="7"/>
</svg>
